<?xml version="1.0" encoding="UTF-8" standalone="no"?>
<!-- Created with Inkscape (http://www.inkscape.org/) -->

<svg
   xmlns:dc="http://purl.org/dc/elements/1.1/"
   xmlns:cc="http://creativecommons.org/ns#"
   xmlns:rdf="http://www.w3.org/1999/02/22-rdf-syntax-ns#"
   xmlns:svg="http://www.w3.org/2000/svg"
   xmlns="http://www.w3.org/2000/svg"
   xmlns:sodipodi="http://sodipodi.sourceforge.net/DTD/sodipodi-0.dtd"
   xmlns:inkscape="http://www.inkscape.org/namespaces/inkscape"
   version="1.1"
   id="svg4485"
   width="580"
   height="666.66669"
   viewBox="0 0 580 666.66669"
   sodipodi:docname="logo.svg"
   inkscape:version="0.92.1 r15371">
  <metadata
     id="metadata4491">
    <rdf:RDF>
      <cc:Work
         rdf:about="">
        <dc:format>image/svg+xml</dc:format>
        <dc:type
           rdf:resource="http://purl.org/dc/dcmitype/StillImage" />
        <dc:title></dc:title>
      </cc:Work>
    </rdf:RDF>
  </metadata>
  <defs
     id="defs4489" />
  <sodipodi:namedview
     pagecolor="#ffffff"
     bordercolor="#666666"
     borderopacity="1"
     objecttolerance="10"
     gridtolerance="10"
     guidetolerance="10"
     inkscape:pageopacity="0"
     inkscape:pageshadow="2"
     inkscape:window-width="1920"
     inkscape:window-height="1017"
     id="namedview4487"
     showgrid="false"
     inkscape:zoom="1.272"
     inkscape:cx="290"
     inkscape:cy="113.20755"
     inkscape:window-x="-8"
     inkscape:window-y="-8"
     inkscape:window-maximized="1"
     inkscape:current-layer="svg4485" />
  <g
     id="g4495"
     transform="matrix(0.27212099,0,0,0.26533019,235.84907,291.66668)"
     style="stroke-width:3.72156525">
    <path
       style="fill:#fefefe;stroke-width:3.72156525"
       d="M 0,333.33334 V 0 H 290 580 V 333.33334 666.66669 H 290 0 Z"
       id="path4511"
       inkscape:connector-curvature="0" />
    <path
       style="fill:#e8e8e8;stroke-width:3.72156525"
       d="M 66.934027,581.60071 C 64.170385,578.83707 60.593976,560.23323 42.660345,455.33335 28.524879,372.65021 22.684739,342.14271 18.020013,326.61808 9.3647064,297.81244 5.0804745,278.93916 4.3832056,266.544 L 3.6637624,253.75465 21.498548,238.38337 c 9.809132,-8.4542 30.434785,-27.51464 45.834785,-42.35654 38.438437,-37.0454 45.483797,-42.86865 135.333337,-111.858035 56.46896,-43.358702 82.6769,-61.502128 88.83902,-61.502128 1.92235,0 12.6016,7.188931 28.12987,18.936142 78.26468,59.207581 162.8914,128.290481 235.19557,191.996001 20.98394,18.48845 26.2869,24.21951 23.82071,25.74369 -0.72517,0.44819 -1.32309,2.42948 -1.32869,4.40287 -0.005,1.97339 -1.18904,7.46493 -2.62986,12.20344 -4.03616,13.27391 -8.9222,38.52611 -12.00628,62.0512 -1.53821,11.73334 -4.26269,30.93334 -6.05438,42.66667 -3.10444,20.33005 -13.93124,96.45567 -23.514,165.3319 -3.29094,23.65364 -5.03127,32.57824 -6.6733,34.22133 -2.01758,2.0189 -6.54262,2.15694 -49.33333,1.50487 -26.65695,-0.4062 -47.69091,-1.26491 -48.44533,-1.97776 -2.54504,-2.40479 3.26665,-5.03845 9.29497,-4.21219 8.37141,1.14743 18.71292,-4.43216 29.59451,-15.9672 25.94684,-27.50501 27.9363,-46.666 7.15393,-68.90095 l -6.85427,-7.33333 1.0721,5.33333 c 0.58965,2.93334 1.07209,11.03334 1.07209,18 0,11.47898 -0.3992,13.5094 -4.25751,21.65434 -5.67656,11.98331 -15.05786,21.20219 -27.67142,27.19233 -14.70298,6.98242 -14.73734,6.95398 -14.73972,-12.19849 -10e-4,-14.90905 -0.29059,-16.69747 -4.30263,-26.65058 -11.64687,-28.89368 -28.77787,-52.31017 -73.51907,-100.49381 -36.7242,-39.54979 -43.06925,-51.08135 -45.57982,-82.83713 -2.6245,-33.19681 -3.89124,-41.67529 -7.36355,-49.28497 -7.10783,-15.57704 -20.04489,-23.99533 -41.17231,-26.79129 -10.08421,-1.33454 -15.12534,-1.21558 -32.44384,0.76554 -22.44752,2.56784 -35.81737,2.1703 -46.17918,-1.3731 -6.39094,-2.1855 -6.61738,-2.17283 -8.66667,0.48472 -2.99913,3.88928 -8.69391,5.7492 -12.81075,4.18397 -2.97532,-1.13121 -3.54513,-0.85215 -4.83161,2.36633 -2.93148,7.33386 -2.92697,15.51012 0.012,21.27042 3.83357,7.51442 10.67584,12.96785 28.81667,22.96748 17.5596,9.67922 25.05665,16.17537 29.02745,25.15202 2.39919,5.42377 2.62463,7.83331 1.89064,20.20845 -0.45833,7.72774 -2.33311,23.35044 -4.16616,34.7171 -1.83304,11.36667 -4.26277,28.46667 -5.39939,38 -1.13662,9.53334 -3.2959,27.09182 -4.79841,39.01886 -1.50249,11.92704 -2.7082,27.52704 -2.67935,34.66667 0.0804,19.8998 4.78483,46.98153 12.59624,72.51272 1.04302,3.40903 1.48374,6.86591 0.97939,7.68196 -1.13325,1.83365 -18.51233,2.54344 -83.7562,3.42076 -46.336621,0.62307 -49.841633,0.50857 -52.05048,-1.70027 z M 182.66667,163.28006 c 0,-5.25015 0.3829,-5.99201 3.49598,-6.77335 l 3.496,-0.87744 -4.31626,-1.81485 -4.31627,-1.81485 0.95352,-7.66646 c 0.52443,-4.21653 1.22896,-8.11644 1.56563,-8.66644 2.0023,-3.27112 15.52381,1.68929 17.31277,6.35125 0.42268,1.10147 -0.21131,3.49805 -1.40884,5.32571 -3.02316,4.61392 -0.25024,4.19299 3.06695,-0.46556 2.49993,-3.51085 2.54269,-4.00994 0.5832,-6.80752 -2.70032,-3.85524 -9.60335,-6.74292 -16.05652,-6.7168 -5.91122,0.0239 -8.63599,1.4018 -7.23974,3.66097 0.54762,0.88607 0.46379,6.79819 -0.18626,13.13807 -1.2286,11.98215 -0.40226,21.15668 1.78388,19.80558 0.69628,-0.43032 1.26596,-3.43556 1.26596,-6.67831 z M 214,162.62962 c 0,-5.58216 0.63757,-7.13931 4.59489,-11.22223 2.52719,-2.6074 3.9126,-4.74072 3.07868,-4.74072 -0.8339,0 -1.88701,0.6 -2.34024,1.33334 -1.3259,2.14537 -5.75505,1.53425 -7.16708,-0.9889 -2.15709,-3.85452 -3.01138,-1.06922 -1.57844,5.14626 0.74086,3.21345 1.36167,8.79264 1.37959,12.3982 0.018,3.60554 0.4826,6.10554 1.0326,5.55554 0.55,-0.55 1,-3.91666 1,-7.48149 z m 160,0 c 0,-5.58216 0.63757,-7.13931 4.59489,-11.22223 2.52719,-2.6074 3.9126,-4.74072 3.07868,-4.74072 -0.8339,0 -1.88701,0.6 -2.34024,1.33334 -1.3259,2.14537 -5.75505,1.53425 -7.16708,-0.9889 -2.15709,-3.85452 -3.01138,-1.06922 -1.57844,5.14626 0.74086,3.21345 1.36167,8.79264 1.37959,12.3982 0.0179,3.60554 0.4826,6.10554 1.0326,5.55554 0.55,-0.55 1,-3.91666 1,-7.48149 z m 31.33333,6.70372 c 0,-0.73333 -0.6,-1.33333 -1.33333,-1.33333 -0.73333,0 -1.33333,0.6 -1.33333,1.33333 0,0.73333 0.6,1.33333 1.33333,1.33333 0.73333,0 1.33333,-0.6 1.33333,-1.33333 z m -103.90322,-4.84648 c -1.5199,-1.93223 -2.76344,-4.66203 -2.76344,-6.06621 0,-4.62148 3.96549,-10.33799 9.02418,-13.00894 2.7367,-1.44494 4.00674,-2.65371 2.8223,-2.68611 -5.19171,-0.14206 -13.17982,9.70373 -13.17982,16.24485 0,3.44845 3.40306,9.02956 5.50571,9.02956 0.74499,0 0.11093,-1.58092 -1.40893,-3.51315 z m -21.26187,-4.58633 c -1.08311,-0.42138 -2.42188,-1.92138 -2.97505,-3.33334 -0.92979,-2.37325 -1.01284,-2.34529 -1.09947,0.37008 -0.0516,1.6155 0.60181,4.46378 1.45189,6.32952 l 1.54562,3.39226 1.52316,-2.99619 c 1.22462,-2.40897 1.13718,-3.14635 -0.44615,-3.76233 z m -39.50157,1.43281 c 0.46921,-0.7592 -0.67906,-1.33333 -2.66667,-1.33333 -1.98761,0 -3.13588,0.57413 -2.66667,1.33333 0.45323,0.73333 1.65323,1.33333 2.66667,1.33333 1.01344,0 2.21344,-0.6 2.66667,-1.33333 z m 118.66666,0 c 0.46922,-0.7592 -0.67905,-1.33333 -2.66666,-1.33333 -1.98762,0 -3.13588,0.57413 -2.66667,1.33333 0.45323,0.73333 1.65323,1.33333 2.66667,1.33333 1.01344,0 2.21344,-0.6 2.66666,-1.33333 z m -97.38518,-16 c 0.20677,-5.25087 -0.0729,-7.61566 -0.70972,-6 -0.57806,1.46666 -1.09318,4.5432 -1.14471,6.83675 -0.0516,2.29353 -0.92824,4.86266 -1.94821,5.70916 -1.4618,1.21318 -1.53291,2.22053 -0.33583,4.75712 l 1.51865,3.21802 1.13927,-2.92718 c 0.6266,-1.60996 1.29284,-6.8272 1.48055,-11.59387 z m 73.33333,0 c 0.20677,-5.25087 -0.0729,-7.61566 -0.70972,-6 -0.57805,1.46666 -1.09317,4.5432 -1.14471,6.83675 -0.0516,2.29353 -0.92824,4.86266 -1.94821,5.70916 -1.4618,1.21318 -1.53291,2.22053 -0.33583,4.75712 l 1.51866,3.21802 1.13926,-2.92718 c 0.6266,-1.60996 1.29284,-6.8272 1.48055,-11.59387 z m 71.38519,9.92131 c 0,-1.14328 -0.60979,-1.70182 -1.35508,-1.2412 -0.7453,0.46061 -1.0099,1.39602 -0.58798,2.07869 1.14298,1.84939 1.94306,1.50455 1.94306,-0.83749 z m -115.39028,-0.49584 c 0.42192,-0.68267 0.15732,-1.61808 -0.58798,-2.0787 -0.74529,-0.46061 -1.35508,0.0979 -1.35508,1.2412 0,2.34204 0.80008,2.68688 1.94306,0.8375 z m -49.18178,-7.46819 c -1.18585,-1.80984 -3.04225,-3.29061 -4.12534,-3.29061 -2.95274,0 -2.37059,2.2507 0.79634,3.07888 1.5211,0.39777 3.12626,2.10226 3.56703,3.78778 0.44076,1.68551 1.05264,2.31082 1.35973,1.38956 0.30708,-0.92125 -0.4119,-3.15578 -1.59776,-4.96561 z m 118.66667,0 c -1.18585,-1.80984 -3.04225,-3.29061 -4.12535,-3.29061 -2.95273,0 -2.37058,2.2507 0.79635,3.07888 1.52109,0.39777 3.12625,2.10226 3.56703,3.78778 0.44076,1.68551 1.05264,2.31082 1.35973,1.38956 0.30708,-0.92125 -0.41191,-3.15578 -1.59776,-4.96561 z m 40.21095,-1.42951 c -0.44306,-0.44305 -1.59307,-0.49041 -2.55556,-0.1052 -1.06364,0.42563 -0.74771,0.74158 0.80556,0.80555 1.40554,0.0579 2.19305,-0.25723 1.75,-0.70029 z M 261.94484,353.4938 c -6.31728,-2.86955 -11.94041,-9.10435 -15.77752,-17.49379 -2.29332,-5.01408 -2.75163,-8.73865 -2.78912,-22.66667 -0.0525,-19.50245 1.67169,-26.64989 7.94127,-32.91946 3.74778,-3.74779 5.36233,-4.41387 10.699,-4.41387 9.63348,0 15.7245,4.15528 22.85057,15.58857 3.31257,5.31482 7.16571,12.67099 8.56249,16.34703 7.86046,20.68705 2.30399,39.31258 -13.72204,45.99683 -6.44646,2.68873 -11.13457,2.57299 -17.76465,-0.43864 z M 222.36685,291.25494 C 217.90299,288.83249 216,285.4685 216,280.00001 c 0,-5.64704 1.94989,-8.8942 6.86817,-11.43753 7.37418,-3.81334 16.57855,0.21881 19.03738,8.33966 1.46841,4.84983 -2.53903,12.27486 -7.81474,14.47919 -5.72634,2.39261 -7.10965,2.37771 -11.72396,-0.1264 z"
       id="path4509"
       inkscape:connector-curvature="0" />
    <path
       style="fill:#cfcfcf;stroke-width:3.72156525"
       d="m 67.629919,580.77279 c -1.263122,-1.26312 -2.296586,-2.57474 -2.296586,-2.91473 0,-0.33999 -2.660473,-15.14713 -5.912164,-32.90476 C 56.169479,527.19566 48.658517,484.16668 42.730143,449.33335 29.134388,369.4488 23.489869,340.47132 17.926904,322.00001 9.6894493,294.6483 6.3469619,279.5301 5.6670879,266.5484 l -0.6695691,-12.78496 13.1679082,-10.974 c 7.242348,-6.0357 28.167906,-25.25773 46.50124,-42.71561 C 109.82281,157.07395 113.96502,153.62397 196,90.688193 c 9.16667,-7.032503 21.76667,-16.709706 28,-21.504896 34.42087,-26.479346 62.35073,-45.183296 67.47039,-45.183296 4.95613,0 80.13006,57.695279 154.52646,118.597579 52.70092,43.14197 130.40042,110.37326 131.81292,114.05416 0.41927,1.0926 -0.97185,7.84294 -3.09137,15.00074 -5.15723,17.41638 -9.96393,41.7604 -13.36352,67.68087 -1.53888,11.73333 -4.26389,30.93333 -6.05559,42.66666 -3.21438,21.0501 -14.94544,103.65721 -23.38436,164.66668 -2.38373,17.23333 -4.91322,32.08333 -5.62109,33 -0.98044,1.26965 -10.53833,1.64434 -40.12376,1.57294 -21.36021,-0.0516 -39.94492,-0.52978 -41.29935,-1.06278 -3.02884,-1.19191 -1.736,-2.37838 7.5427,-6.92218 11.28508,-5.52633 28.45737,-24.70193 34.5566,-38.58798 3.89588,-8.8697 3.6846,-20.20759 -0.54888,-29.45471 -3.25538,-7.1107 -18.71964,-25.32172 -20.23576,-23.83006 -0.39984,0.39338 0.20294,3.88746 1.33949,7.76462 1.39068,4.74405 1.91313,10.83265 1.59759,18.61809 -0.5921,14.60869 -5.4624,25.81828 -15.51799,35.71651 -6.73071,6.62537 -18.10969,13.21992 -25.28863,14.65571 l -3.73776,0.74756 0.0171,-15.77554 c 0.0159,-14.6689 -0.28287,-16.52376 -4.25875,-26.44219 -11.65894,-29.08488 -32.23717,-57.10617 -76.37537,-104 -19.54984,-20.77037 -26.24489,-29.28025 -33.24269,-42.25371 -6.85983,-12.71766 -9.03834,-22.61322 -10.68332,-48.52735 -1.90344,-29.9859 -5.43459,-41.86292 -15.41283,-51.84117 -12.9262,-12.9262 -36.05701,-17.09893 -70.39995,-12.69995 -15.78312,2.02166 -34.14505,1.14615 -41.88374,-1.99704 l -5.66147,-2.2995 -4.83597,4.24605 c -4.74355,4.16488 -6.47022,4.42748 -12.89674,1.9614 -1.42177,-0.54559 -2.56944,1.00319 -4.12386,5.56516 -6.00707,17.62977 1.25153,28.46629 29.3138,43.76324 16.96605,9.24831 26.15405,17.25745 29.32614,25.56347 3.09558,8.10563 2.04963,25.04316 -3.90194,63.18607 -2.57455,16.5 -5.06674,34.5 -5.53819,40 -0.47145,5.5 -2.01889,18.54535 -3.43875,28.98965 -1.41985,10.44432 -2.57057,24.84432 -2.55713,32 0.0388,20.69178 5.42596,52.62453 12.20271,72.33294 2.37512,6.90743 2.38781,7.41767 0.22386,9 -1.71666,1.25524 -11.90741,1.67741 -40.49142,1.67741 -21.00858,0 -49.86044,0.3906 -64.115246,0.86802 -23.455644,0.78556 -26.136,0.64984 -28.214412,-1.42858 z M 261.75495,169.87474 c -0.90296,-13.74637 -0.35856,-15.14497 5.91172,-15.18765 4.27076,-0.0291 3.72561,-2.42647 -0.66667,-2.93186 -3.56724,-0.41045 -3.65943,-0.6322 -3.39968,-8.17756 0.34364,-9.98252 -2.3648,-9.65641 -4.33156,0.52154 -1.20669,6.24462 -1.98901,7.51569 -5.71933,9.29257 -4.20367,2.00236 -4.6841,4.54911 -0.5596,2.96639 3.4226,-1.31338 5.67542,3.52454 5.69504,12.23001 0.0201,8.94568 1.02942,14.07849 2.76825,14.07849 0.62816,0 0.76399,-5.75637 0.30183,-12.79193 z m 73.33333,0 c -0.90296,-13.74637 -0.35856,-15.14497 5.91172,-15.18765 4.27076,-0.0291 3.72561,-2.42647 -0.66667,-2.93186 -3.56724,-0.41045 -3.65942,-0.6322 -3.39968,-8.17756 0.34364,-9.98252 -2.3648,-9.65641 -4.33156,0.52154 -1.20669,6.24462 -1.98901,7.51569 -5.71933,9.29257 -4.20367,2.00236 -4.68409,4.54911 -0.5596,2.96639 3.4226,-1.31338 5.67543,3.52454 5.69504,12.23001 0.0201,8.94568 1.02943,14.07849 2.76825,14.07849 0.62816,0 0.76399,-5.75637 0.30183,-12.79193 z m -151.38777,-5.73275 c -0.35712,-4.67692 -0.14127,-4.91824 7.87858,-8.80865 4.53518,-2.2 9.38242,-5.05 10.77166,-6.33333 1.38924,-1.28334 3.16996,-2.33334 3.95714,-2.33334 2.25818,0 4.35878,7.69958 4.35878,15.97675 0,8.19256 0.56773,9.56668 3.48937,8.44555 1.44388,-0.55407 1.69485,-2.23868 1.05365,-7.07234 -0.79253,-5.97442 -0.54949,-6.66845 4.1613,-11.88272 5.04692,-5.58634 5.3682,-8.73634 0.58646,-5.7501 -3.49097,2.18014 -6.17809,2.03502 -7.10629,-0.3838 -0.42211,-1.1 -1.94587,-2 -3.38613,-2 -1.44027,0 -2.99007,-1.17022 -3.44402,-2.60047 -1.22166,-3.84914 -8.94105,-8.06394 -16.38338,-8.94537 -6.94051,-0.822 -13.07238,1.22435 -11.46448,3.82599 0.50297,0.81383 0.78169,8.57941 0.61938,17.25683 -0.16232,8.67743 0.0964,16.4106 0.57488,17.18483 1.75998,2.84769 4.7108,-1.63316 4.3331,-6.57983 z m -0.55796,-12.82502 c -1.25946,-3.28208 0.88476,-14.07781 2.95377,-14.87177 2.69721,-1.03501 7.71127,0.43172 11.23779,3.28732 2.24568,1.81843 2.76338,3.19315 2.04956,5.44225 -1.90324,5.99654 -14.47286,10.75022 -16.24112,6.1422 z m 192.06714,12.69966 c -0.79253,-5.97442 -0.54949,-6.66845 4.1613,-11.88272 5.04692,-5.58634 5.3682,-8.73634 0.58646,-5.7501 -3.49097,2.18014 -6.17809,2.03502 -7.10629,-0.3838 -0.42211,-1.1 -1.75624,-2 -2.96475,-2 -1.72886,0 -2.00318,0.78165 -1.2868,3.66666 0.50076,2.01667 1.20999,7.56667 1.57604,12.33334 0.84046,10.94412 1.24695,12.13788 3.79958,11.15834 1.65161,-0.63378 1.90404,-2.09416 1.23446,-7.14172 z m 32.0108,-4.54933 c 1.11431,-10.81657 1.00515,-12.00475 -1.25484,-13.65728 -2.96581,-2.16865 -6.53345,-2.31355 -10.09065,-0.40979 -3.69384,1.9769 -1.8962,4.12863 2.16063,2.58623 4.18388,-1.59071 7.2977,-0.39708 7.2977,2.79747 0,2.3568 -1.50884,3.09378 -8.52536,4.16417 -1.38894,0.21188 -3.74316,2.01791 -5.23157,4.01339 -3.75007,5.0276 -1.63764,9.5611 5.32392,11.42572 8.77191,2.34949 8.97535,2.13421 10.32017,-10.91991 z M 393.6,166.40001 c -4.05812,-4.05812 -0.17969,-9.06667 7.02085,-9.06667 4.16155,0 5.60312,2.98469 3.58302,7.41836 -1.63219,3.58227 -7.72311,4.52907 -10.60387,1.64831 z M 290,169.33334 c 0.47941,-0.77572 -0.84881,-1.33333 -3.17596,-1.33333 -7.50395,0 -6.87947,-4.64572 1.23772,-9.20784 2.89936,-1.62954 5.27157,-3.19616 5.27157,-3.4814 0,-2.62291 -3.73557,-7.43 -6.74133,-8.67503 -4.6486,-1.92551 -8.4034,-0.80629 -11.09952,3.30851 -1.86472,2.84593 -1.87324,3.86786 -0.0824,9.89822 1.1026,3.71286 3.30769,7.64268 4.92348,8.77443 3.32224,2.32697 8.4368,2.70605 9.66645,0.71644 z m -11.06667,-12.26667 c -2.2713,-2.2713 -1.98886,-4.30145 0.97112,-6.9802 4.94815,-4.478 11.03679,0.35791 7.2527,5.76047 -2.19379,3.13207 -5.77964,3.66391 -8.22382,1.21973 z m 36.36826,11.44127 c 2.92788,-2.92787 1.9938,-3.43192 -2.9216,-1.57656 -3.41727,1.28988 -4.69238,1.17064 -7.55758,-0.70672 -7.18692,-4.70904 -5.76393,-13.24853 3.21187,-19.27475 5.67175,-3.80793 6.4816,-5.61657 2.51495,-5.61657 -1.8242,0 -5.27576,2.36849 -8.77779,6.02341 -6.39028,6.66928 -7.52268,12.21632 -3.62877,17.77566 3.83024,5.46844 13.21904,7.31542 17.15892,3.37553 z m -72.61127,-8.17419 c 3.31844,-4.2187 2.94369,-10.98488 -0.83997,-15.16578 -3.2771,-3.62114 -5.25795,-3.10791 -8.54743,2.21457 -6.44197,10.42333 2.10283,22.21205 9.3874,12.95121 z m -7.10419,-1.87218 c -4.0971,-2.29286 -2.04069,-10.46156 2.63363,-10.46156 2.37343,0 4.74831,4.94988 3.80335,7.92718 -1.00158,3.15568 -3.54051,4.15531 -6.43698,2.53438 z m 125.17692,2.76528 c 4.81935,-5.32532 1.8285,-18.56018 -4.19429,-18.56018 -0.92653,0 -2.99616,2.12215 -4.59917,4.71587 -6.05303,9.79401 1.58138,21.81355 8.79346,13.84431 z m -6.51025,-2.76528 c -4.09711,-2.29286 -2.04069,-10.46156 2.63363,-10.46156 2.37342,0 4.7483,4.94988 3.80334,7.92718 -1.00157,3.15568 -3.5405,4.15531 -6.43697,2.53438 z m 76.71943,419.95512 c 0.8213,-2.46392 2.89324,-2.63587 5.74836,-0.47704 2.47809,1.87374 2.38369,1.97774 -1.8317,2.01797 -2.85224,0.0272 -4.25537,-0.52483 -3.91666,-1.54093 z M 261.20971,351.59068 c -7.48179,-3.91637 -13.86227,-13.22209 -15.94522,-23.25563 -2.53558,-12.21385 -1.08382,-33.23713 2.84219,-41.15827 4.25641,-8.58774 10.59565,-11.98801 18.42116,-9.88082 7.42172,1.99846 12.60019,6.7701 18.95368,17.46461 15.07728,25.37881 13.40811,48.2829 -4.17231,57.25175 -6.82417,3.48143 -12.88602,3.35427 -20.0995,-0.42164 z m -37.87638,-61.2011 c -4.26476,-2.44584 -5.9122,-5.37824 -5.9576,-10.60438 -0.0819,-9.41827 11.50615,-15.00383 18.96128,-9.13962 11.01384,8.6635 -0.86784,26.70391 -13.00368,19.744 z"
       id="path4507"
       inkscape:connector-curvature="0" />
    <path
       style="fill:#b0b0b0;stroke-width:3.72156525"
       d="m 67.356247,580.0371 c -1.438103,-2.32691 -10.57979,-53 -29.25554,-162.16577 C 27.550545,356.20225 24.433485,341.19139 16.677733,314.70448 10.140877,292.38025 5.3333333,269.6674 5.3333333,261.1088 c 0,-6.14822 1.0200411,-7.31416 22.7106757,-25.95895 6.942462,-5.96759 25.222658,-22.96588 40.622658,-37.774 C 108.77618,158.8079 118.52181,150.84483 228,67.186112 c 30.33057,-23.177376 59.76432,-43.186111 63.52871,-43.186111 3.48938,0 87.28536,64.834355 153.13796,118.485419 30.0946,24.51849 96.86196,81.46463 120.09074,102.42584 l 13.56922,12.2446 -4.36816,14.42207 c -5.41179,17.86776 -10.27775,42.91228 -14.58918,75.08875 -1.81784,13.56667 -4.78746,34.56667 -6.59914,46.66667 -3.20671,21.41705 -9.75247,67.35283 -20.78687,145.87444 -2.97883,21.19762 -5.72909,39.04762 -6.11169,39.66667 -0.94792,1.53377 -79.20492,1.45424 -79.20492,-0.0805 0,-0.66334 3.15,-2.99784 7,-5.1878 12.92968,-7.35468 32.22265,-30.4579 35.60502,-42.6368 4.13976,-14.90605 -0.92578,-29.53702 -15.15158,-43.76283 -4.69692,-4.69692 -9.15,-8.53986 -9.89574,-8.53986 -0.77008,0 -0.23694,3.18356 1.23402,7.36871 7.42349,21.12115 2.7416,41.83483 -13.01802,57.59443 -6.15997,6.15997 -20.24585,13.70069 -25.59588,13.70248 -2.64572,8.8e-4 -3.01261,-0.48361 -2.27101,-2.99895 4.06981,-13.80389 1.58315,-27.36418 -9.10777,-49.66667 -12.81096,-26.72512 -30.41462,-49.51013 -74.48274,-96.4056 -17.59066,-18.71927 -27.72925,-32.66096 -33.17214,-45.61544 -3.8891,-9.25631 -5.0893,-17.10904 -7.74066,-50.64563 -2.50369,-31.66885 -10.58202,-44.68928 -33.20112,-53.51263 -6.48449,-2.52949 -10.1397,-2.94084 -26.20238,-2.94881 C 230.4,255.53324 213,256.00256 202,256.58097 c -18.65256,0.98079 -20.58133,0.85424 -28.62877,-1.87835 -5.97247,-2.02802 -8.78492,-2.46152 -9.13604,-1.40817 -0.90542,2.71624 -6.00648,6.70556 -8.57426,6.70556 -1.3766,0 -3.64298,-0.61015 -5.03641,-1.35588 -3.18396,-1.70401 -5.86535,1.96239 -7.81747,10.68921 -3.36442,15.04062 4.02354,24.77418 29.8834,39.37102 20.75059,11.71286 28.94768,19.48576 31.07682,29.46859 1.67917,7.87312 0.0597,26.57176 -5.03235,58.10566 -2.166,13.41344 -4.59677,31.28807 -5.40173,39.72141 -0.80495,8.43333 -2.63422,23.87868 -4.06503,34.32298 -3.07684,22.45946 -3.20201,32.1835 -0.65665,51.01035 2.37494,17.56642 5.17992,30.87523 9.5204,45.1715 1.86546,6.14433 2.89893,11.61766 2.2966,12.16297 -1.71508,1.55269 -132.129551,2.89461 -133.072263,1.36928 z M 262.46471,170.75283 c -0.22814,-7.28594 -0.126,-13.50634 0.2269,-13.82312 0.35295,-0.31677 2.87694,-0.97996 5.60887,-1.47374 l 4.96713,-0.8978 1.5038,5.97213 c 2.15344,8.55208 5.19574,10.75221 14.22859,10.28991 1.7698,-0.0905 3,-1.01052 3,-2.24339 0,-1.43029 -0.78232,-1.84155 -2.47883,-1.30309 -3.17966,1.00918 -6.8545,-0.39439 -6.8545,-2.618 0,-1.6519 8.23926,-7.32239 10.63948,-7.32239 0.63454,0 1.85378,2.12125 2.70944,4.71389 1.88344,5.70687 5.98329,8.62542 12.45857,8.86884 5.46019,0.20528 11.23107,-3.74417 8.89068,-6.08456 -0.93089,-0.93089 -1.87355,-0.85613 -2.96484,0.23516 -2.20748,2.20748 -6.56559,2.00232 -10.10332,-0.4756 -6.04055,-4.23096 -1.94944,-15.95058 6.50472,-18.63382 2.68364,-0.85176 3.40623,-3.92619 1.23776,-5.26638 -2.09141,-1.29256 -8.81552,2.86896 -13.1686,8.15 l -4.03609,4.89648 -3.53576,-4.202 c -4.58507,-5.44904 -11.24202,-5.82097 -15.54798,-0.86868 -3.15606,3.6298 -9.1443,4.4739 -11.51072,1.62254 -0.97546,-1.17536 -1.00953,-3.53699 -0.1088,-7.54561 0.86766,-3.86164 0.86082,-6.28496 -0.0203,-7.16601 -2.24448,-2.24448 -5.44426,1.67767 -5.44426,6.67333 0,2.52509 -0.58733,5.68851 -1.30518,7.02983 -1.39019,2.59759 -9.76218,6.17936 -10.34968,4.42788 -2.07447,-6.18433 -5.41747,-10.42234 -8.50366,-10.78032 -7.09529,-0.823 -11.18404,15.94726 -4.86584,19.95754 3.32395,2.10977 7.63184,1.11066 9.85755,-2.2862 1.88367,-2.87483 3.07329,-3.33848 7.69741,-3 l 5.46938,0.40036 1.48006,12.66666 c 1.6873,14.43998 1.41398,13.33334 3.29303,13.33334 0.96201,0 1.30211,-4.39572 1.02495,-13.24718 z m -27.67984,-13.94374 c -1.24242,-1.49702 -1.27151,-2.65412 -0.1208,-4.8043 2.2138,-4.13653 6.00256,-2.87717 6.00256,1.99522 0,4.47117 -3.22438,6.01109 -5.8818,2.80908 z m 44.32429,-1.57914 c -1.16689,-3.04086 2.65688,-6.36216 6.07549,-5.27713 3.13976,0.99652 3.63654,3.35933 1.21535,5.78052 -2.26524,2.26524 -6.33628,1.98415 -7.29084,-0.50339 z m 56.85987,16.43672 c -0.37952,-15.88064 -0.41488,-15.66666 2.58858,-15.66666 3.48355,0 6.77572,-1.36499 6.77572,-2.80932 0,-0.65487 -1.42653,-1.19068 -3.17008,-1.19068 -4.91853,0 -6.20785,-2.53991 -4.69876,-9.25641 0.86766,-3.86164 0.86082,-6.28496 -0.0203,-7.16601 -2.24448,-2.24448 -5.44426,1.67767 -5.44426,6.67333 0,6.19818 -1.83088,9.19686 -6.63852,10.87282 -5.27448,1.83869 -5.13102,3.93431 0.30519,4.45845 l 4.33333,0.41782 1.48007,12.66666 c 1.68899,14.45454 1.40993,13.33334 3.31849,13.33334 0.98038,0 1.36768,-4.0811 1.17047,-12.33334 z m 71.93898,-9.56316 c 0.9189,-6.1764 1.26416,-12.51077 0.76727,-14.07637 -1.56331,-4.92555 -10.00792,-6.24915 -14.99393,-2.35015 -2.9424,2.30092 -0.2314,3.87104 5.12216,2.96656 4.66085,-0.78744 5.19649,-0.59098 5.19649,1.90592 0,2.17518 -0.83528,2.78387 -3.82019,2.78387 -2.1011,0 -5.43322,1.26881 -7.4047,2.81959 -2.91284,2.29124 -3.50868,3.72782 -3.17982,7.66666 0.37763,4.5227 0.85087,4.99608 7.07138,7.07352 3.66666,1.22454 7.32005,2.27454 8.11865,2.33334 0.82059,0.0604 2.17848,-4.77639 3.12269,-11.12294 z m -11.57468,4.52162 c -4.22977,-1.70016 -3.90444,-6.34726 0.56327,-8.04587 1.9598,-0.74512 4.3598,-1.04909 5.33333,-0.67552 2.20659,0.84675 2.31675,6.34959 0.17007,8.49627 -1.83925,1.83925 -2.03303,1.84644 -6.06667,0.22512 z m -212.59508,-0.86611 c 0.44335,-6.07799 1.32434,-7.11755 8.26175,-9.74864 2.56667,-0.97345 6.57664,-3.174 8.91104,-4.89013 2.3344,-1.71614 4.81443,-3.12024 5.51116,-3.12024 1.78489,0 2.87167,4.84268 2.89293,12.89094 0.0228,8.61728 0.95604,11.10906 4.16086,11.10906 2.79584,0 2.9843,-0.67499 2.60594,-9.33334 -0.23136,-5.29446 0.29716,-6.5403 4.49462,-10.59489 2.61622,-2.52719 4.75678,-5.37719 4.75678,-6.33333 0,-2.03387 -4.79334,-2.35751 -6,-0.40511 -1.25813,2.03571 -5.6172,1.5874 -6.48217,-0.66667 -0.42211,-1.1 -1.58171,-2 -2.57689,-2 -0.99519,0 -3.26402,-1.55701 -5.04186,-3.46001 -5.88281,-6.29705 -14.31304,-9.07327 -22.47938,-7.40288 l -4.58031,0.93689 -0.51364,17.75658 c -0.56096,19.3923 -0.16408,21.92057 3.33689,21.25646 1.69787,-0.32206 2.44815,-1.96218 2.74228,-5.99469 z m -0.19602,-15.69544 c -0.4087,-1.06504 0.02,-4.51504 0.95266,-7.66667 1.44438,-4.88079 2.16903,-5.6756 4.88832,-5.36161 4.65662,0.53766 9.28346,3.97594 9.28346,6.89867 0,5.67105 -13.24115,11.03741 -15.12444,6.12961 z m 192.62984,20.26976 c 0.0947,-0.91667 0.054,-4.36667 -0.0901,-7.66667 -0.23136,-5.29446 0.29716,-6.5403 4.49462,-10.59489 2.61622,-2.52719 4.75678,-5.37719 4.75678,-6.33333 0,-2.03387 -4.79334,-2.35751 -6,-0.40511 -1.29274,2.09171 -4.86836,1.56367 -6.77152,-1 -1.57786,-2.12548 -1.92246,-2.14606 -3.86845,-0.23092 -1.69649,1.6696 -1.85051,2.85405 -0.74816,5.75347 0.76348,2.00808 1.38813,6.86292 1.38813,10.78853 0,3.92561 0.36419,8.08656 0.80932,9.24653 0.95743,2.49502 5.78096,2.84892 6.02942,0.44239 z m -14.24767,-9.29668 c 4.51287,-6.44301 1.20953,-18.36999 -5.08781,-18.36999 -2.12768,0 -3.89578,1.5721 -6.02111,5.35362 -2.60969,4.6433 -2.80921,5.95865 -1.50388,9.91388 0.82777,2.50814 2.22129,4.85165 3.09672,5.20778 3.71931,1.51308 7.57991,0.65898 9.51608,-2.10529 z m -8.47287,-4.22757 c -1.24241,-1.49702 -1.2715,-2.65412 -0.1208,-4.8043 2.2138,-4.13653 6.00256,-2.87717 6.00256,1.99522 0,4.47117 -3.22437,6.01109 -5.8818,2.80908 z M 262,351.30796 c -6.13004,-3.07876 -12.49595,-11.08095 -14.68848,-18.46399 -2.28659,-7.6998 -2.67307,-32.28879 -0.62348,-39.66747 1.93889,-6.98014 6.74492,-13.44982 11.05019,-14.87533 10.68994,-3.53952 20.65888,4.01789 29.92696,22.68751 5.20438,10.48372 6.34966,14.1502 6.77581,21.692 0.78253,13.84879 -3.8164,23.84797 -13.20028,28.70056 -4.87335,2.52011 -14.14741,2.48479 -19.24072,-0.0733 z M 222.50819,289.3244 c -3.87439,-2.26379 -5.73083,-8.76322 -3.82042,-13.37535 1.97864,-4.77685 4.93008,-6.61571 10.61851,-6.61571 5.50932,0 10.69372,5.17128 10.69372,10.66667 0,8.03609 -10.29983,13.52663 -17.49181,9.32439 z"
       id="path4505"
       inkscape:connector-curvature="0" />
    <path
       style="fill:#8f8f8f;stroke-width:3.72156525"
       d="M 68.165144,578.92738 C 66.224279,575.22238 56.170597,519.66375 37.355407,408.66668 29.653068,363.22803 24.40472,337.68293 19.288353,320.72957 11.449129,294.75388 7.7209059,278.28794 7.0096584,266.49994 6.2170848,253.36408 3.8065523,257.02265 25.333333,238.68929 31.566667,233.38063 51.666667,214.7687 70,197.32941 c 18.333333,-17.4393 37.53333,-35.25942 42.66667,-39.60028 11.00818,-9.30878 49.73828,-39.36917 116.66666,-90.550936 32.12004,-24.56297 57.8464,-41.84486 62.29159,-41.84486 4.62363,0 111.90332,83.734616 178.37508,139.226416 32.73907,27.33115 78.48472,66.66822 94.83076,81.54573 9.76825,8.89068 13.17849,12.78349 12.34309,14.08968 -3.43705,5.37398 -13.27546,45.84397 -15.18706,62.47152 -1.04627,9.10064 -4.90807,36.37909 -10.09864,71.33333 -4.09943,27.60624 -6.22076,42.46355 -9.80423,68.66667 -1.15332,8.43334 -2.63619,18.63334 -3.29525,22.66667 -0.65907,4.03333 -3.80499,26.44188 -6.99094,49.79679 -4.55965,33.42495 -6.24608,42.70612 -7.92294,43.60356 -1.17168,0.62707 -18.57283,0.71851 -38.66923,0.20321 l -36.53889,-0.93689 6,-3.81992 c 11.847,-7.54244 25.70586,-23.07744 32.41077,-36.33061 7.4224,-14.67139 5.72252,-28.53322 -5.29663,-43.19193 -6.01556,-8.00246 -18.76766,-19.44846 -20.13944,-18.0767 -0.36922,0.36924 0.67474,3.80036 2.31994,7.62473 9.30364,21.62689 1.88177,49.22683 -16.96882,63.10242 -7.01105,5.1607 -19.09694,10.32085 -20.67265,8.8263 -0.55743,-0.5287 -0.43259,-4.02444 0.27741,-7.76828 4.14707,-21.86736 -13.04601,-58.13576 -46.31449,-97.69935 -5.85816,-6.96666 -20.32083,-23.06268 -32.13925,-35.76891 -23.86938,-25.66249 -31.11415,-35.08369 -37.95379,-49.35561 -5.36639,-11.19777 -6.976,-19.88655 -8.80725,-47.54215 -1.93006,-29.14755 -5.91703,-40.37567 -18.16527,-51.157 -7.54676,-6.64293 -17.69069,-10.57965 -32.29669,-12.53392 -9.15998,-1.22559 -14.93107,-1.06096 -33.10255,0.94431 -24.79853,2.73658 -35.95848,2.19425 -46.28801,-2.2494 -5.22927,-2.24956 -6.81227,-2.49035 -7.27362,-1.10634 -0.32432,0.97296 -1.7829,2.96226 -3.24132,4.42067 -2.20253,2.20253 -3.73229,2.50831 -9.03178,1.80531 l -6.38012,-0.84636 -2.13488,6.26556 c -6.28455,18.44412 1.28245,31.33304 26.02338,44.32576 19.04644,10.00225 27.14472,16.44101 31.26142,24.85524 3.4538,7.05931 3.57785,8.00687 2.70584,20.66795 -0.50266,7.2982 -2.37691,22.42068 -4.16502,33.6055 -1.7881,11.18483 -4.18928,28.13606 -5.33594,37.66939 -1.14667,9.53334 -3.33658,26.93334 -4.86648,38.66667 -1.5299,11.73333 -2.76004,27.93333 -2.73367,36 0.0541,16.57524 3.80941,41.59211 9.10648,60.66667 5.71611,20.58349 6.47364,18.29213 -6.33376,19.15827 -6.12176,0.41398 -35.57687,1.04005 -65.45578,1.39125 -50.107425,0.58896 -54.41724,0.46301 -55.509556,-1.62216 z M 262.96219,171.02959 c -0.35899,-12.92773 -0.27166,-13.39212 2.66666,-14.17932 6.07964,-1.62878 7.37786,-1.00938 8.31112,3.96538 1.22351,6.52184 6.10143,11.1898 11.6661,11.16394 5.40149,-0.0251 8.3575,-1.74736 7.3784,-4.29889 -0.49951,-1.30169 -2.06795,-1.72649 -4.86096,-1.31656 -5.40035,0.7926 -5.54315,-2.28391 -0.25112,-5.40999 5.3225,-3.14408 6.33748,-2.9048 7.2608,1.71176 1.58956,7.94783 16.23241,12.52504 21.48853,6.7171 1.3026,-1.43936 2.00637,-3.56035 1.56395,-4.71331 -0.709,-1.84759 -1.24226,-1.87252 -4.49504,-0.21017 -4.57667,2.33892 -9.1388,0.87709 -11.16908,-3.57888 -1.91468,-4.20228 0.54334,-8.96258 6.80256,-13.17403 6.28604,-4.22953 6.92006,-7.70662 1.40524,-7.70662 -3.09584,0 -5.58027,1.44742 -9.90124,5.76839 l -5.76839,5.76839 -4.21756,-3.76839 c -5.34909,-4.7794 -10.63673,-4.91152 -14.90111,-0.3723 -2.31813,2.46753 -4.29558,3.28778 -7.23241,3 -4.28701,-0.4201 -4.55744,-1.34132 -3.2476,-11.06275 0.44872,-3.3303 0.0371,-4.0713 -2.45889,-4.42579 -3.35082,-0.47592 -5.66882,3.75595 -5.66882,10.34932 0,4.032 -1.59734,5.88463 -6.32254,7.33304 -2.4299,0.74483 -3.28894,0.21404 -4.59115,-2.83681 -3.98167,-9.32842 -8.27425,-10.6877 -13.63445,-4.31745 -4.24414,5.04386 -4.51618,11.51834 -0.68842,16.38454 3.55412,4.51834 8.46552,4.59608 11.35918,0.17982 1.68869,-2.5773 3.32117,-3.33334 7.1974,-3.33334 4.54825,0 5.09062,0.38654 5.84665,4.16667 0.45833,2.29167 0.83333,7.13111 0.83333,10.75432 0,7.20611 1.95279,12.21988 4.4236,11.35756 1.10588,-0.38596 1.46563,-4.53945 1.20526,-13.91563 z m -27.81987,-15.71322 c -0.89196,-2.3244 1.91389,-6.31167 3.67543,-5.22299 0.65024,0.40187 1.18225,2.19527 1.18225,3.98532 0,3.64061 -3.58507,4.55403 -4.85768,1.23767 z m 45.48488,0.61978 c -1.42829,-2.31104 0.4418,-5.26948 3.33096,-5.26948 3.00613,0 3.57501,2.60016 1.10851,5.06667 -1.96906,1.96905 -3.31002,2.03031 -4.43947,0.20281 z m 55.67152,15.14947 -0.36795,-13.30944 5.18931,-1.55475 c 6.54124,-1.95981 6.87992,-1.94674 6.87992,0.26543 0,3.37623 5.43103,8.84648 8.78304,8.84648 3.76029,0 8.53728,-6.67096 8.54531,-11.93333 0.004,-2.42559 0.39236,-2.8793 1.50952,-1.76214 0.82749,0.8275 1.80566,5.7133 2.17372,10.85734 0.69978,9.78045 2.66508,12.53956 6.60361,9.27088 1.42588,-1.18339 1.71639,-3.13015 1.09023,-7.30574 -0.79658,-5.31192 -0.49215,-6.08464 4.5538,-11.55885 2.97409,-3.22651 5.40744,-6.48508 5.40744,-7.24128 0,-2.50584 -4.32751,-3.08566 -7.50264,-1.00523 -2.89575,1.89738 -3.34151,1.8342 -6.03032,-0.85461 l -2.90343,-2.90343 -2.78181,3.44304 -2.7818,3.44304 -2.39558,-3.22485 c -1.31757,-1.77366 -3.51424,-3.22484 -4.88148,-3.22484 -2.23829,0 -8.43305,5.93516 -9.59541,9.19331 -0.27081,0.75909 -2.38533,0.88681 -5.12753,0.30972 -4.9399,-1.03962 -5.19119,-1.78303 -3.8723,-11.45565 0.41396,-3.03584 -0.0351,-4.06992 -1.936,-4.45837 -3.57042,-0.72963 -4.908,1.19747 -5.94284,8.56212 -0.80066,5.69806 -1.45922,6.75484 -5.24886,8.42283 -5.64996,2.48679 -5.966,6.75937 -0.5,6.75937 3.22666,0 3.96521,0.65943 4.66666,4.16667 0.45834,2.29167 0.83334,7.13111 0.83334,10.75432 0,7.20611 1.95278,12.21988 4.4236,11.35756 1.10514,-0.38569 1.4664,-4.52899 1.20845,-13.8596 z m 17.51027,-15.76925 c -0.89196,-2.3244 1.91389,-6.31167 3.67542,-5.22299 0.65024,0.40187 1.18226,2.19527 1.18226,3.98532 0,3.64061 -3.58507,4.55403 -4.85768,1.23767 z m 53.381,16.3503 c 3.83392,-20.03362 3.65265,-24.83536 -1.05626,-27.97958 -4.72293,-3.15358 -15.34402,0.56909 -13.71744,4.80793 0.67935,1.77032 1.92504,2.04199 6.21664,1.35572 3.60195,-0.57597 5.36707,-0.36367 5.36707,0.64552 0,0.82707 -1.2298,1.50375 -2.73288,1.50375 -6.498,0 -13.29425,5.94064 -13.24671,11.57901 0.0336,3.98523 1.86212,5.72781 8.75636,8.34492 8.69434,3.30043 9.7373,3.27465 10.41322,-0.25727 z m -12.64307,-7.14428 c -1.51201,-1.82186 -1.398,-2.4233 0.75825,-4 5.19332,-3.79745 10.04143,-1.52988 7.37624,3.45006 -1.73238,3.23701 -5.68277,3.50408 -8.13449,0.54994 z m -210.81359,7.21095 c 0.88,-0.88 1.6,-3.90132 1.6,-6.71405 0,-4.81004 0.36578,-5.27084 6.15316,-7.7516 3.38426,-1.45066 7.93048,-3.90311 10.10274,-5.4499 5.31576,-3.78516 6.43021,-2.27969 7.35394,9.93411 0.7967,10.53412 2.66562,13.33921 6.67203,10.01419 1.42588,-1.18339 1.71639,-3.13015 1.09023,-7.30574 -0.79658,-5.31192 -0.49215,-6.08464 4.5538,-11.55885 2.97409,-3.22651 5.40744,-6.48508 5.40744,-7.24128 0,-2.50584 -4.32751,-3.08566 -7.50264,-1.00523 -2.80798,1.83987 -3.36676,1.84062 -5.47879,0.007 -6.83992,-5.93718 -12.12903,-9.8531 -15.95236,-11.81076 -4.52527,-2.31707 -15.84649,-2.91695 -18.87175,-0.99996 -2.24249,1.42097 -3.53169,32.87775 -1.56,38.06372 1.39968,3.68143 3.87044,4.37977 6.4322,1.81801 z m 0.80942,-21.57547 c -0.44848,-1.16873 -0.28395,-4.38237 0.36565,-7.14142 1.47951,-6.28397 5.23436,-7.16869 10.60019,-2.49763 l 3.82474,3.32952 L 196,147.17578 c -4.34571,4.33803 -10.33839,5.8978 -11.45725,2.98209 z m 78.69626,200.65173 c -6.87757,-3.12373 -13.12378,-10.65619 -15.43873,-18.61796 -2.74953,-9.45635 -2.37484,-34.03584 0.63785,-41.84396 4.3817,-11.35618 13.17564,-14.69151 23.47439,-8.9033 7.98567,4.4882 18.53693,22.68743 21.545,37.16167 3.05513,14.70068 -4.31144,30.13515 -15.92213,33.3601 -6.56587,1.82372 -7.98794,1.70868 -14.29638,-1.15655 z m -39.23562,-61.89148 c -6.95667,-3.46827 -6.90727,-14.01464 0.0825,-17.62923 6.93227,-3.58481 14.58071,0.66589 14.58071,8.10339 0,7.87797 -7.8021,12.94652 -14.66328,9.52584 z"
       id="path4503"
       inkscape:connector-curvature="0" />
    <path
       style="fill:#777777;stroke-width:3.72156525"
       d="m 68.74396,578.79175 c -0.820556,-1.32769 -6.027011,-28.22357 -10.735532,-55.4584 -1.901747,-11 -5.497491,-31.7 -7.990543,-46 -2.49305,-14.3 -7.604225,-44 -11.358164,-66 C 30.068112,360.98212 25.260444,337.82905 19.34468,318.31477 10.505737,289.15782 5.7565795,264.11232 7.7259545,257.0414 c 0.5173916,-1.85766 4.8407125,-6.57132 9.6073785,-10.47479 11.327438,-9.27616 17.178544,-14.63614 55.333334,-50.68875 17.6,-16.63031 36.200003,-33.80909 41.333333,-38.17509 7.18233,-6.10871 73.64743,-57.904065 95.47964,-74.406006 1.9138,-1.446552 10.6138,-8.069008 19.33333,-14.71657 35.21919,-26.850257 57.76883,-41.913526 62.74434,-41.913526 3.45364,0 50.77473,35.710746 110.42684,83.333332 72.34916,57.75915 173.66781,144.39737 173.85753,148.66668 0.0489,1.1 -1.40027,6.4935 -3.22033,11.98556 -4.75627,14.352 -10.55723,43.45136 -14.489,72.68111 -2.886,21.45518 -12.50466,88.76871 -20.10034,140.66667 -1.12696,7.7 -4.49153,31.68226 -7.47682,53.29393 -2.98528,21.61167 -5.71687,39.76167 -6.07019,40.33334 -0.824,1.33328 -72.4858,1.37222 -72.48261,0.0393 0.001,-0.55 2.70017,-2.70437 5.99748,-4.78751 6.86268,-4.33561 18.67398,-16.93418 25.45828,-27.15514 14.46929,-21.79891 11.51346,-39.91794 -9.91358,-60.76957 -13.51973,-13.15668 -16.06024,-13.64717 -10.95941,-2.11592 12.90553,29.17511 -2.40185,62.95443 -32.79591,72.37181 -2.81572,0.87244 -2.86261,0.6689 -2.18737,-9.49272 0.92124,-13.86374 -1.68861,-23.66235 -11.64412,-43.71762 -12.36275,-24.9046 -29.93515,-47.84257 -65.88317,-86 -28.79495,-30.56472 -39.37344,-45.8577 -43.95739,-63.54772 -1.14032,-4.40063 -2.70065,-17.94366 -3.4674,-30.09561 -0.76676,-12.15196 -2.29637,-25.55854 -3.39916,-29.79241 -5.23953,-20.11592 -17.04623,-31.84373 -37.54331,-37.29248 -9.42252,-2.5048 -31.64558,-2.77575 -46.73237,-0.56976 -16.01629,2.34189 -35.32625,1.22529 -43.64163,-2.52356 -6.2173,-2.80297 -6.75653,-2.85077 -8,-0.70901 -4.11852,7.09378 -6.30732,7.86193 -14.81261,5.19834 -2.37061,-0.74238 -3.16335,-0.004 -5.04443,4.69704 -4.0588,10.14394 -4.16918,16.21536 -0.4428,24.35486 4.02314,8.78768 11.03908,14.70677 28.77967,24.2803 16.59076,8.95306 24.02367,14.81706 27.88607,22 3.04621,5.6651 3.18588,6.8931 2.502,22.00001 -0.39838,8.8 -2.5556,27.1 -4.79386,40.66666 -2.23825,13.56667 -4.95562,33.36667 -6.03861,44.00001 -1.08299,10.63333 -2.873,25.63333 -3.97783,33.33333 -4.17804,29.11888 -0.98184,62.22183 9.19134,95.19443 2.23201,7.23423 2.71957,10.45315 1.63317,10.78225 -3.43655,1.04103 -128.843901,1.8305 -129.47148,0.81506 z M 264.38349,183.66667 c 0.33315,-0.91666 0.295,-7.21666 -0.0848,-14 l -0.6905,-12.33333 h 4.23774 c 2.86143,0 4.48127,0.75781 4.98755,2.33333 2.44045,7.59452 3.93108,9.99356 7.28809,11.72955 5.30624,2.74396 8.85992,2.41016 12.43843,-1.16835 3.02635,-3.02634 3.18895,-3.04464 6.38273,-0.71813 1.80251,1.31304 5.62952,2.76347 8.50447,3.22319 4.1658,0.66614 5.97089,0.25085 8.88997,-2.04531 6.48295,-5.09948 4.12974,-9.32668 -3.62997,-6.52073 -4.04969,1.46438 -4.94085,1.3683 -7.32556,-0.78982 -5.29452,-4.79148 -3.66583,-8.67425 7.28501,-17.36732 3.73851,-2.96772 3.85484,-3.32283 1.77952,-5.43205 -3.14521,-3.19659 -8.09672,-1.59383 -14.32858,4.63804 l -5.14791,5.14791 -3.15151,-3.14952 c -4.97124,-4.9681 -10.54221,-5.44897 -15.43464,-1.33226 -2.256,1.89831 -5.6991,3.45147 -7.65133,3.45147 -3.47961,0 -3.54144,-0.15093 -3.14085,-7.66667 0.37385,-7.01393 0.1609,-7.70193 -2.50115,-8.08091 -3.43147,-0.48851 -5.06193,2.08863 -6.38884,10.0983 -0.87875,5.3044 -3.5088,8.31595 -7.26249,8.31595 -0.77171,0 -2.27998,-2.09866 -3.35171,-4.66368 -1.07173,-2.56503 -3.47735,-5.36023 -5.34581,-6.21157 -2.85399,-1.30036 -3.85388,-1.14094 -6.2533,0.99703 -7.12513,6.34874 -7.86692,16.88459 -1.53921,21.86196 4.56485,3.59072 6.53459,3.38768 10.79297,-1.11256 2.49132,-2.63281 4.81683,-3.75602 7.59151,-3.66666 l 4,0.1288 0.92635,11.17982 c 0.5095,6.1489 1.24066,11.9989 1.62482,13 0.87514,2.28055 5.68467,2.39415 6.49899,0.15351 z m 20.94984,-19.44136 c 0,-1.7482 6.2542,-4.6376 7.87287,-3.63721 3.28107,2.02781 1.445,4.74524 -3.2062,4.74524 -2.56667,0 -4.66667,-0.49861 -4.66667,-1.10803 z M 236,153.22223 c 0,-3.2494 3.11569,-2.79009 3.76443,0.55494 0.25517,1.31568 -0.42502,2.22284 -1.66667,2.22284 -1.23684,0 -2.09776,-1.14 -2.09776,-2.77778 z m 44.76004,1.59552 c -0.98424,-1.59253 2.77736,-4.59436 4.45665,-3.55649 0.73343,0.45328 0.99552,1.70493 0.58243,2.78145 -0.82851,2.15903 -3.89247,2.6303 -5.03908,0.77504 z m 56.95679,28.84892 c 0.33314,-0.91666 0.295,-7.21666 -0.0848,-14 -0.66048,-11.79702 -0.57078,-12.33333 2.06301,-12.33333 1.51443,0 3.69425,-0.36099 4.84403,-0.80221 1.42272,-0.54594 2.50336,0.28364 3.38288,2.59694 1.67954,4.41754 7.18276,8.00246 10.61322,6.91367 1.46616,-0.46535 4.04554,-3.06511 5.73195,-5.77724 l 3.06621,-4.93116 0.66667,7.86401 c 0.74407,8.77696 3.42161,12.02018 7.66667,9.28634 1.8363,-1.18259 2.2404,-2.973 1.89705,-8.40531 -0.40681,-6.43616 -0.114,-7.20664 4.33333,-11.40097 7.64551,-7.21064 5.18502,-13.18119 -3.51356,-8.52586 -2.22254,1.18948 -3.01408,1.05684 -3.9786,-0.66666 -1.50802,-2.69469 -5.5534,-2.78411 -7.72233,-0.1707 -1.4392,1.73414 -2.06319,1.6511 -5.00975,-0.66667 -4.71529,-3.70905 -6.17314,-3.37076 -11.22889,2.60559 -3.742,4.42339 -5.03256,5.13412 -8.17064,4.49976 -3.61013,-0.7298 -3.71443,-0.98802 -3.33333,-8.25312 0.35862,-6.83697 0.13624,-7.53636 -2.5164,-7.91399 -3.43871,-0.48955 -5.0618,2.08835 -6.40014,10.16515 -0.798,4.81583 -1.69036,6.10258 -5.48817,7.91363 -2.69759,1.28639 -4.53524,3.14315 -4.53524,4.58241 0,2.37271 0.61695,2.6761 6,2.95047 2.36516,0.12053 2.7714,1.39997 3.59301,11.31575 0.50951,6.14889 1.24067,11.99889 1.62483,13 0.87513,2.28054 5.68467,2.39414 6.49899,0.1535 z m 16.94984,-30.44444 c 0,-3.2494 3.11569,-2.79009 3.76442,0.55494 0.25518,1.31568 -0.42501,2.22284 -1.66666,2.22284 -1.23684,0 -2.09776,-1.14 -2.09776,-2.77778 z m 54.14868,14.99302 c 0.51881,-3.41839 0.99761,-9.7365 1.06398,-14.04026 0.1076,-6.97684 -0.26266,-8.11458 -3.41592,-10.49654 -2.91773,-2.20406 -4.41088,-2.46478 -8.53296,-1.48993 -6.34604,1.50081 -8.76588,4.88082 -5.69373,7.95297 2.03313,2.03313 1.96285,2.39629 -0.9724,5.02501 -4.50903,4.03813 -5.34056,8.95397 -2.17572,12.86237 2.60665,3.2191 14.20827,7.89519 17.18075,6.92482 0.88146,-0.28776 2.02717,-3.32007 2.546,-6.73844 z m -13.4349,-4.13899 c -1.3811,-2.23468 0.48446,-4.07625 4.12934,-4.07625 2.4733,0 3.23578,0.61188 2.90769,2.33333 -0.50021,2.62449 -5.69673,3.91156 -7.03703,1.74292 z m -209.82377,6.21017 c 0.1228,-0.89086 0.27283,-3.37233 0.33333,-5.51437 0.11254,-3.98437 -0.25296,-3.70768 17.83416,-13.50124 2.7864,-1.50875 3.57015,0.39123 4.27583,10.3654 0.73447,10.38105 3.12933,13.76953 7.66667,10.84747 1.8363,-1.18259 2.2404,-2.973 1.89705,-8.40531 -0.40681,-6.43616 -0.114,-7.20664 4.33333,-11.40097 7.64551,-7.21064 5.18502,-13.18119 -3.51356,-8.52586 -2.22254,1.18948 -3.01408,1.05684 -3.9786,-0.66666 -0.66224,-1.18335 -1.82888,-2.15155 -2.59253,-2.15155 -0.76365,0 -3.85199,-2.1087 -6.86296,-4.68598 -6.5208,-5.58156 -13.97925,-7.86226 -21.85113,-6.6818 -5.46139,0.81899 -9.57643,4.44516 -7.45354,6.56807 0.48635,0.48633 0.72052,8.61039 0.5204,18.05346 -0.32565,15.36648 -0.112,17.31012 2.03442,18.51133 2.6823,1.50111 6.9894,-0.14512 7.35713,-2.81199 z m -0.20515,-22.61976 c 0.0544,-8.9576 3.60402,-11.32536 9.50076,-6.3374 l 3.14771,2.66259 -3.74101,3.33741 c -4.78926,4.27254 -8.93228,4.42947 -8.90746,0.3374 z m 77.9818,202.781 c -4.8146,-2.6563 -10.19612,-8.35503 -13.0139,-13.78099 -2.12311,-4.08824 -2.90979,-8.60751 -3.36979,-19.35824 -1.08909,-25.45334 4.09653,-38.0948 15.50408,-37.79568 8.41111,0.22054 13.50496,4.07656 20.31385,15.37745 8.23323,13.66487 11.09076,23.11772 10.22998,33.84123 -0.82032,10.21947 -4.22279,16.25939 -11.44655,20.31936 -5.64769,3.17419 -13.85555,3.80353 -18.21767,1.39687 z m -40.36998,-63.18993 c -4.16667,-2.91845 -4.16667,-11.59701 0,-14.51546 4.54634,-3.18439 9.75986,-2.60519 12.93988,1.43754 3.62902,4.61355 3.48889,7.88262 -0.5093,11.88079 -3.75789,3.75791 -8.16818,4.18264 -12.43058,1.19713 z"
       id="path4501"
       inkscape:connector-curvature="0" />
    <path
       style="fill:#666666;stroke-width:3.72156525"
       d="M 69.696397,578.40946 C 68.068641,576.41609 60.018817,532.63159 42.687371,431.50235 28.894961,351.02344 27.348769,343.37379 19.359333,316.08881 12.180481,291.57208 8,271.77502 8,262.29565 v -7.19156 L 21.666667,243.739 C 29.183333,237.48818 50.066436,218.33977 68.073561,201.18694 106.98573,164.12089 117.7086,154.82874 152,128.4586 c 14.3,-10.99672 39.2,-30.169023 55.33333,-42.605118 47.02576,-36.248974 79.61312,-59.186814 84.08562,-59.186814 3.51412,0 86.60248,64.401106 151.24772,117.230872 40.41104,33.02493 114.62448,96.45151 130.96393,111.92842 2.17041,2.05584 2.10972,2.76492 -1.09913,12.84169 -4.23114,13.287 -10.59784,41.36561 -11.79055,51.99903 -1.02777,9.16292 -4.44185,33.33224 -10.26468,72.66667 -5.18595,35.03221 -6.95248,47.51887 -17.07115,120.66667 -2.94185,21.26667 -6.12349,44.06667 -7.07032,50.66667 l -1.72149,12 -35.30664,0.28473 -35.30664,0.28472 4.66667,-3.54327 c 7.52802,-5.71582 19.8143,-19.06756 25.483,-27.69285 14.77133,-22.47559 11.38261,-41.54091 -11.15148,-62.73936 -5.80404,-5.46002 -11.403,-9.92731 -12.44216,-9.92731 -2.1359,0 -2.59034,4.74273 -0.57386,5.98899 0.72354,0.44716 2.60452,5.05681 4.17998,10.24365 7.32502,24.11603 -3.04739,49.0284 -25.36612,60.92416 -11.02943,5.87863 -12.07266,5.6656 -10.56195,-2.1568 2.35443,-12.19106 -1.69912,-27.55173 -13.10659,-49.66667 -12.15681,-23.56762 -30.7161,-47.36493 -67.07061,-86 -37.37609,-39.72073 -41.60065,-48.28672 -44.71488,-90.66667 -2.14376,-29.17356 -4.65437,-39.18928 -12.36621,-49.33333 -13.44026,-17.67911 -36.20114,-23.35567 -74.98999,-18.70248 -21.49316,2.57836 -32.35627,2.07116 -43.10003,-2.01235 -8.86861,-3.3708 -9.13241,-3.33979 -11.82376,1.38992 -1.68797,2.96641 -3.24609,3.99157 -6.06666,3.99157 -2.08744,0 -4.46307,-0.66772 -5.27918,-1.48382 -0.81609,-0.8161 -2.19857,-1.04208 -3.07216,-0.50218 -3.09152,1.91067 -6.58554,12.00907 -6.61473,19.11783 -0.0592,14.41013 6.78047,22.34073 30.78139,35.69124 19.24198,10.70335 28.24048,18.74799 30.59628,27.35306 1.97281,7.20609 0.35632,25.6674 -5.3162,60.71437 -2.1564,13.32311 -4.58116,31.32311 -5.38835,40 -0.80717,8.6769 -2.42764,21.77618 -3.60103,29.10951 -4.55176,28.44721 -1.8998,62.06794 7.55144,95.73456 2.09655,7.46819 3.70366,13.68675 3.57136,13.81904 -0.13226,0.13227 -19.73685,0.59358 -43.56568,1.02507 -23.82884,0.43148 -52.37327,1.11205 -63.432066,1.51237 -15.640469,0.56616 -20.423035,0.34071 -21.530027,-1.01493 z M 264.38736,172.33334 c -0.15363,-7.51667 0.14637,-13.67485 0.66667,-13.68487 0.52028,-0.0107 2.2114,-0.35788 3.75804,-0.77304 2.29438,-0.61586 2.95638,-0.0332 3.59609,3.16539 0.43123,2.15611 2.36913,5.80397 4.30647,8.10636 2.88937,3.43381 4.50068,4.18616 8.96557,4.18616 3.24136,0 6.45133,-0.91239 7.93552,-2.25556 2.34093,-2.11851 2.72435,-2.11851 6.31071,0 8.0363,4.74716 20.07357,1.6318 20.07357,-5.19523 0,-3.69402 -3.37556,-5.70698 -5.68963,-3.39292 -2.76717,2.76718 -8.90304,1.79826 -10.47613,-1.6543 -1.93887,-4.25535 0.14521,-7.9472 6.88976,-12.20484 5.83243,-3.68186 6.88396,-7.67611 2.62137,-9.95738 -3.27714,-1.75387 -8.25505,0.57396 -13.87969,6.4906 l -3.86765,4.06844 -3.90131,-3.28273 c -5.2132,-4.38663 -11.58171,-4.32928 -16.90768,0.15221 -5.34599,4.49836 -8.95464,3.85328 -8.31964,-1.48721 1.22601,-10.31099 1.13892,-10.58791 -3.47025,-11.0323 -3.6373,-0.35068 -4.54846,0.14566 -5.66667,3.0868 -0.73287,1.92758 -1.33248,5.14562 -1.33248,7.15122 0,7.39445 -6.62895,9.37551 -9.35444,2.79557 -3.231,-7.80033 -10.18887,-8.78461 -15.24437,-2.15652 -9.30244,12.19612 2.40112,29.7291 12.59881,18.87415 1.84105,-1.95971 4.6154,-3.33333 6.73241,-3.33333 4.09918,0 5.26759,3.30964 5.26759,14.92098 0,8.26784 1.89124,12.04359 5.75688,11.49326 2.79595,-0.39804 2.89885,-0.94891 2.63048,-14.08091 z M 288,162.80983 c 3.98567,-3.28881 5.33333,-3.49344 5.33333,-0.80982 0,1.1 -0.45,2.00818 -1,2.0182 -0.55,0.0107 -2.5,0.3611 -4.33333,0.78018 l -3.33333,0.76198 z m -52,-8.80982 c 0,-1.1 0.6,-2 1.33333,-2 0.73334,0 1.33334,0.9 1.33334,2 0,1.1 -0.6,2 -1.33334,2 -0.73333,0 -1.33333,-0.9 -1.33333,-2 z m 45.33333,0.11106 c 0,-1.16106 0.95,-2.11106 2.11111,-2.11106 1.16112,0 1.87361,0.71249 1.58333,1.58333 -0.82409,2.47229 -3.69444,2.88235 -3.69444,0.52777 z m 56.39212,18.31526 -0.27454,-13.57364 4.2189,-0.92663 c 2.61846,-0.57511 4.40015,-0.38288 4.69668,0.50673 0.26279,0.78835 1.68138,2.96347 3.15243,4.8336 3.7938,4.82304 9.28433,4.54079 13.69767,-0.70417 3.79686,-4.51232 4.44465,-3.91999 5.07009,4.63604 0.44429,6.07801 3.67563,8.98812 7.37999,6.64635 1.74898,-1.10564 2.36148,-3.37059 2.44572,-9.04403 0.1024,-6.89649 0.56252,-8.02996 5.17874,-12.7574 3.28147,-3.36052 4.77918,-5.93683 4.25119,-7.31272 -1.20643,-3.14391 -4.62953,-3.9795 -8.28599,-2.02263 -2.75337,1.47358 -3.59241,1.40128 -5.6817,-0.48949 -3.01763,-2.73092 -4.76615,-2.7991 -6.86698,-0.26776 -1.41812,1.70873 -2.00752,1.69597 -4.75284,-0.1028 -4.52824,-2.96703 -8.84365,-1.82924 -11.93382,3.14641 -2.17988,3.50996 -3.44336,4.26567 -6.68766,4 -3.6037,-0.29508 -3.95349,-0.72382 -3.5306,-4.32753 1.19478,-10.18124 1.07148,-10.64295 -2.96516,-11.10424 -5.01777,-0.57341 -6.15282,0.76578 -7.2703,8.57789 -0.7471,5.22286 -1.61643,6.83351 -4.41136,8.17308 -5.36568,2.57171 -7.16931,5.2606 -5.15591,7.6866 0.91292,1.1 3.01139,2 4.66325,2 3.43582,0 4.67008,3.9435 4.67008,14.92099 0,8.26784 1.89124,12.04359 5.75688,11.49325 2.79426,-0.39778 2.89888,-0.95318 2.63524,-13.98788 z m 16.94122,-18.42632 c 0,-1.1 0.6,-2 1.33333,-2 0.73333,0 1.33333,0.9 1.33333,2 0,1.1 -0.6,2 -1.33333,2 -0.73333,0 -1.33333,-0.9 -1.33333,-2 z m 53.40324,19.33333 c 0.5623,-1.1 1.75618,-7.00033 2.65306,-13.11185 1.52819,-10.41338 1.46447,-11.3353 -1.01364,-14.66667 -3.53204,-4.74818 -12.9968,-5.6542 -17.81616,-1.70545 -2.83417,2.32217 -3.01786,2.98581 -1.5107,5.4577 1.47078,2.41226 1.328,3.30707 -1,6.26666 -3.91542,4.97762 -3.56518,11.56461 0.79734,14.99617 1.93223,1.51989 4.78223,2.77263 6.33334,2.78385 1.5511,0.0107 3.72018,0.61048 4.82018,1.33167 2.61715,1.71587 5.45992,1.14529 6.73658,-1.35208 z m -11.35975,-9.26295 c -1.17232,-1.89685 0.32265,-4.07038 2.79963,-4.07038 1.1682,0 1.8374,0.93674 1.58797,2.22284 -0.51936,2.67796 -3.18155,3.79896 -4.3876,1.84754 z m -211.64349,8.99628 c 0.88,-0.88 1.6,-4.05946 1.6,-7.06548 0,-5.00705 0.38085,-5.6032 4.54061,-7.10738 2.49733,-0.90306 6.71777,-3.11938 9.37876,-4.92518 5.62123,-3.81466 5.64269,-3.78666 7.07129,9.22267 1.10943,10.10283 3.61284,13.43265 8.00934,10.65335 1.74898,-1.10564 2.36148,-3.37059 2.44572,-9.04403 0.1024,-6.89649 0.56252,-8.02996 5.17874,-12.7574 3.28147,-3.36052 4.77918,-5.93683 4.25119,-7.31272 -1.20643,-3.14391 -4.62953,-3.9795 -8.28599,-2.02263 -2.75337,1.47358 -3.59241,1.40128 -5.6817,-0.48949 -1.3482,-1.22011 -3.0097,-2.21838 -3.69222,-2.21838 -0.68253,0 -1.94466,-1.12681 -2.80474,-2.50402 -3.87327,-6.20209 -23.52275,-10.7939 -29.63478,-6.92524 -2.34101,1.48177 -3.59126,35.11196 -1.50894,40.58888 1.44526,3.80132 6.2377,4.80207 9.13272,1.90705 z m 1.01797,-23.59638 c -0.94023,-1.52132 0.58068,-9.31207 1.98767,-10.18163 1.97262,-1.21916 7.92769,2.45493 7.92769,4.89112 0,1.33013 -1.7702,3.33383 -3.93379,4.45265 -4.58914,2.37315 -4.99737,2.43032 -5.98157,0.83786 z m 80.46679,201.26918 c -10.32432,-3.16996 -16.31896,-11.76696 -18.6411,-26.73349 -2.58952,-16.68984 0.30618,-34.5255 6.63247,-40.8518 2.89553,-2.89553 4.30981,-3.32973 9.09053,-2.79088 7.66614,0.86408 11.61514,3.74342 17.28042,12.59968 11.79397,18.43696 14.80329,35.34795 8.36101,46.98521 -4.78737,8.64786 -14.57132,13.29425 -22.72333,10.79128 z M 221.88376,284.6764 c -2.75128,-4.19899 -1.60697,-9.25598 2.73879,-12.10343 5.52713,-3.62151 12.71078,0.513 12.71078,7.31563 0,7.87813 -11.15886,11.33624 -15.44957,4.7878 z"
       id="path4499"
       inkscape:connector-curvature="0" />
    <path
       style="fill:#565656;stroke-width:3.72156525"
       d="M 66.743624,562.92066 C 65.121237,554.34763 62.069252,537.43335 59.961433,525.33335 47.669969,454.7738 44.945864,439.01475 40.024949,410.00001 32.056425,363.01595 27.021489,338.78347 21.208217,319.43756 13.86326,294.99437 9.3333333,273.74606 9.3333333,263.73664 v -8.60896 L 23,243.71062 c 7.516667,-6.27937 25.066667,-22.37128 39,-35.75979 41.4601,-39.83892 53.93727,-50.71944 88.84695,-77.47761 5.40084,-4.13973 18.21972,-14.06168 28.48638,-22.04876 C 200.01805,92.332513 226.66669,71.932559 244,58.921098 c 17.54279,-13.168712 44.60968,-30.921097 47.14511,-30.921097 4.30669,0 78.88897,57.629786 153.52156,118.626229 47.35086,38.69938 130,109.92022 130,112.02429 0,0.55781 -0.9354,3.63965 -2.07866,6.84852 -4.46176,12.52308 -11.53284,43.7298 -13.25566,58.50097 -1.07695,9.23368 -4.99666,36.89095 -10.10966,71.33334 -3.76197,25.34158 -6.18124,42.26892 -9.2422,64.66667 -0.75165,5.5 -2.23289,15.7 -3.29165,22.66666 -1.05877,6.96667 -4.45884,31.13418 -7.55572,53.70557 l -5.63069,41.03889 -32.28171,-0.12493 c -17.75493,-0.0687 -32.62363,-0.46688 -33.04155,-0.8848 -0.41792,-0.41791 1.85187,-2.75404 5.04398,-5.1914 8.13184,-6.20912 21.78098,-23.58323 26.60158,-33.86138 5.52562,-11.78133 5.59582,-22.60005 0.22074,-34.01528 -6.52311,-13.85331 -32.71214,-37.46629 -32.71214,-29.49445 0,1.01137 1.65,5.36137 3.66667,9.66666 3.27019,6.98138 3.66667,9.3416 3.66667,21.82779 0,11.57092 -0.50416,15.09128 -2.9057,20.28964 -3.76044,8.13979 -13.98309,19.01554 -22.42764,23.86046 -10.30201,5.9106 -10.76646,5.61202 -10.21342,-6.56602 0.40444,-8.90596 -0.13536,-12.2402 -3.7236,-23 -9.82476,-29.46079 -31.62804,-60.11329 -76.76219,-107.91742 -26.45079,-28.0155 -36.90143,-43.4697 -41.27307,-61.03377 -1.04489,-4.19809 -2.52692,-17.55041 -3.29338,-29.67182 -1.39742,-22.09986 -3.51452,-33.73876 -7.5843,-41.69513 -11.68054,-22.83536 -36.34436,-31.60729 -76.00266,-27.03109 -10.00222,1.15416 -21.87614,2.09848 -26.38648,2.09848 -8.38622,0 -23.08628,-3.13124 -25.3609,-5.4021 -2.33177,-2.32792 -6.11652,-1.30706 -7.36917,1.9877 -1.66849,4.38845 -5.92485,6.58838 -9.27651,4.79464 -1.41845,-0.75914 -3.73693,-1.38024 -5.15218,-1.38024 -3.71424,0 -7.60743,10.62097 -7.5814,20.68277 0.0384,14.87523 6.91274,22.51536 33.08349,36.76928 15.68165,8.54103 22.69187,14.28105 26.45867,21.66459 2.51173,4.92341 2.72089,6.95988 2.00518,19.5234 -0.43949,7.71464 -2.31092,23.32663 -4.15873,34.69329 -1.84781,11.36667 -4.29169,28.76667 -5.43083,38.66667 -1.13913,9.9 -3.2503,27.04644 -4.6915,38.1032 -3.15666,24.21771 -3.32294,42.73562 -0.55426,61.72569 1.68247,11.53985 7.27628,36.1774 10.69338,47.09818 0.54337,1.73658 -0.31239,2.41599 -3.69276,2.93175 -2.42003,0.36924 -31.16903,0.96635 -63.88667,1.32689 l -59.486621,0.65556 z M 264.63987,185.83634 c 1.83096,-1.83097 2.02254,-4.08623 1.24589,-14.66667 -0.88317,-12.03152 -0.81424,-12.503 1.82816,-12.503 1.95103,0 3.18761,1.3383 4.27168,4.62303 3.14399,9.5264 13.94377,14.27951 21.08309,9.27893 2.73423,-1.91513 3.51067,-1.90125 8.90583,0.15918 10.25648,3.91698 19.35881,-0.0128 19.35881,-8.35782 0,-2.43697 -0.73726,-3.03665 -3.73333,-3.03665 -2.05333,0 -4.43705,0.70372 -5.29716,1.56383 -1.18587,1.18586 -2.37824,1.19277 -4.93333,0.0285 -6.08752,-2.77365 -3.67568,-9.81707 4.84213,-14.14071 7.18067,-3.6449 6.38673,-10.43263 -1.31005,-11.20016 -3.31002,-0.33008 -5.30939,0.65439 -9.7596,4.80549 l -5.59679,5.22063 -4.7726,-3.25077 c -5.59243,-3.80918 -12.06117,-3.45304 -16.7164,0.92031 -1.59211,1.4957 -3.92673,2.71946 -5.18805,2.71946 -1.98719,0 -2.17284,-0.90826 -1.39076,-6.80389 0.97673,-7.36298 -0.13752,-9.13679 -5.76382,-9.17569 -3.57622,-0.0247 -5.15202,2.65651 -6.38194,10.85893 -1.22303,8.15655 -5.006,9.61477 -8.0889,3.11807 -2.8571,-6.02094 -8.69918,-8.43041 -13.23486,-5.45851 -1.83766,1.20408 -3.3412,2.79336 -3.3412,3.53175 0,0.73838 -1.72803,0.0649 -3.84007,-1.49658 -3.23967,-2.39519 -4.30808,-2.58861 -6.83333,-1.23715 -3.43146,1.83647 -7.61548,0.19367 -12.91912,-5.0725 -4.3215,-4.29096 -13.49356,-8.20042 -19.32068,-8.23515 -5.12536,-0.0305 -11.86643,1.99627 -13.05967,3.92661 -0.38159,0.61731 -0.65784,9.95443 -0.61389,20.74915 0.0717,17.621 0.33624,19.81422 2.58817,21.46087 3.42833,2.50687 5.52752,2.30516 8.66525,-0.83257 1.65444,-1.65444 2.66667,-4.44444 2.66667,-7.35015 0,-4.38141 0.46196,-4.88777 7.16264,-7.85115 3.93945,-1.74221 7.61445,-3.89869 8.16667,-4.7922 1.83517,-2.96936 3.29546,1.56356 3.31694,10.2961 0.018,7.31212 0.4074,8.55616 3.26434,10.42809 6.14428,4.02588 11.06701,-1.49707 9.37472,-10.51777 -0.72714,-3.87594 -0.23747,-5.25218 3.22289,-9.05828 l 4.08029,-4.48798 0.0391,3.73288 c 0.0499,4.76108 3.32185,11.12279 6.63189,12.89427 4.11872,2.20427 7.38867,1.6074 10.74052,-1.96048 1.84083,-1.95947 4.61544,-3.33333 6.73188,-3.33333 3.58708,0 3.60262,0.0425 4.20487,11.51682 0.48524,9.24523 1.09447,11.87511 3.08871,13.33334 3.18274,2.32728 3.9819,2.28533 6.61441,-0.34716 z M 290,162.66667 c 0.45323,-0.73333 1.08864,-1.33333 1.41203,-1.33333 0.32338,0 0.58797,0.6 0.58797,1.33333 0,0.73334 -0.63541,1.33334 -1.41203,1.33334 -0.77661,0 -1.0412,-0.6 -0.58797,-1.33334 z m -103.31513,-15 C 186.725,143.99413 188.40033,140 189.90067,140 c 0.8743,0 2.75433,0.9004 4.17782,2.0009 2.53988,1.96355 2.52944,2.05063 -0.55953,4.66667 -3.55471,3.01045 -6.86133,3.49386 -6.83409,0.9991 z m 151.28833,38.16967 c 1.83096,-1.83097 2.02255,-4.08623 1.24589,-14.66667 l -0.91778,-12.503 h 4.18268 c 2.30048,0 4.18268,0.62727 4.18268,1.39394 0,2.53317 6.49144,7.9394 9.5331,7.9394 1.6432,0 4.67048,-1.61226 6.72727,-3.58279 l 3.73963,-3.58279 v 5.55206 c 0,4.41006 0.66722,5.98922 3.24392,7.67754 6.15642,4.03384 11.06677,-1.49837 9.36788,-10.55425 -0.75312,-4.01445 -0.25894,-5.26491 3.84333,-9.72496 3.47876,-3.78215 5.10104,-4.72956 6.21488,-3.62949 1.11895,1.10512 0.79869,2.65098 -1.24304,6 -5.44464,8.93077 -2.17317,14.88254 10.44977,19.0113 9.14395,2.99084 10.4256,1.8883 12.34258,-10.61758 2.22258,-14.49975 1.86541,-18.04038 -2.1701,-21.51158 -4.10076,-3.52733 -8.2491,-3.82539 -14.85077,-1.06704 -4.17771,1.74556 -5.06709,1.74031 -7.79339,-0.046 -2.51412,-1.64731 -3.72434,-1.72175 -6.61078,-0.40659 -2.70271,1.23143 -3.9009,1.24226 -5.09712,0.046 -1.90887,-1.90886 -7.23388,-2.05878 -8.3608,-0.23538 -0.51604,0.83496 -2.30358,0.5618 -4.812,-0.73536 -4.95306,-2.56132 -8.3066,-1.58014 -11.91384,3.48577 -1.79774,2.52468 -3.96326,3.92115 -6.08058,3.92115 -3.18402,0 -3.2598,-0.21608 -2.38589,-6.8039 0.97673,-7.36297 -0.13752,-9.13679 -5.76381,-9.17568 -3.54902,-0.0245 -5.14607,2.64723 -6.36379,10.64624 -0.76383,5.01755 -1.60409,6.32749 -5.13159,8.00001 -6.72452,3.18833 -5.94548,10.66666 1.11119,10.66666 2.83652,0 3.03636,0.63802 3.60736,11.51683 0.48524,9.24523 1.09447,11.87511 3.08871,13.33333 3.18274,2.32728 3.9819,2.28534 6.61441,-0.34716 z m 58.69347,-23.16967 c 0.45322,-0.73333 1.72404,-1.33333 2.82404,-1.33333 1.1,0 1.62918,0.6 1.17596,1.33333 -0.45323,0.73334 -1.72404,1.33334 -2.82404,1.33334 -1.1,0 -1.62919,-0.6 -1.17596,-1.33334 z m -134.3366,185.31586 c -10.55532,-5.73042 -15.14127,-19.0684 -13.97623,-40.64919 0.69471,-12.86845 3.72524,-22.56825 7.71884,-24.70556 4.13619,-2.21362 11.32388,-1.43453 16.06348,1.74115 5.34211,3.57939 14.9676,19.67207 18.06215,30.19777 3.79754,12.91687 0.63504,26.21883 -7.71266,32.44055 -5.17477,3.85687 -14.05617,4.28662 -20.15558,0.97528 z m -38.79008,-62.42084 c -7.01631,-7.75293 3.73818,-18.28351 11.12668,-10.89501 3.51894,3.51894 3.36404,6.0905 -0.60607,10.0606 -3.89067,3.89068 -7.49596,4.17662 -10.52061,0.83441 z"
       id="path4497"
       inkscape:connector-curvature="0" />
  </g>
</svg>
